<?xml version="1.0" encoding="UTF-8" standalone="no"?>
<!-- Created with Inkscape (http://www.inkscape.org/) -->

<svg
   version="1.1"
   id="svg2"
   width="4512"
   height="2245.3333"
   viewBox="0 0 4512 2245.3333"
   sodipodi:docname="vecteezy_abstract-white-wavy-with-blurred-light-curved-line-background_10742693.eps"
   xmlns:inkscape="http://www.inkscape.org/namespaces/inkscape"
   xmlns:sodipodi="http://sodipodi.sourceforge.net/DTD/sodipodi-0.dtd"
   xmlns="http://www.w3.org/2000/svg"
   xmlns:svg="http://www.w3.org/2000/svg">
  <defs
     id="defs6" />
  <sodipodi:namedview
     id="namedview4"
     pagecolor="#ffffff"
     bordercolor="#000000"
     borderopacity="0.25"
     inkscape:showpageshadow="2"
     inkscape:pageopacity="0.0"
     inkscape:pagecheckerboard="0"
     inkscape:deskcolor="#d1d1d1" />
  <g
     id="g8"
     inkscape:groupmode="layer"
     inkscape:label="ink_ext_XXXXXX"
     transform="matrix(1.3333333,0,0,-1.3333333,0,2245.3333)">
    <g
       id="g10"
       transform="scale(0.1)">
      <path
         d="M 33840,0 H 0 V 16840 H 33840 V 0"
         style="fill:#262626;fill-opacity:0.9;fill-rule:nonzero;stroke:none"
         id="path12" />
      <path
         d="m -30169.8,-4297.4 c 1861.3,-577 3750.8,-1159.5 5967.3,-1349.2 2216.5,-189.8 4836.8,56.6 7161.1,998.1 2169.9,878.9 3829.1,2248.4 5180.9,3610 1351.8,1361.602 2501.18,2780.8 4112.8,4064.9 1611.62,1284.2 3833.6,2457.7 6119.88,2768.3 C 2621.27,6371.9 4813.13,3869.6 8688.54,3583 11147.5,3401.1 14229.9,4215.2 16379,5614.1 c 3305.7,2151.78 4146.9,5251.3 7706.2,7236.8 2618.7,1460.8 6086.8,1899.3 8785.6,1578.7 2698.8,-320.7 4795.1,-1278 6833.7,-2219.4"
         style="fill:none;stroke:#616153;stroke-width:20;stroke-linecap:butt;stroke-linejoin:miter;stroke-miterlimit:10;stroke-dasharray:none;stroke-opacity:1"
         id="path14" />
      <path
         d="m -30026.5,-4570.4 c 1785,-466.9 3569.2,-948.4 5657.5,-1046.4 1422.2,-66.6 3018.1,66.5 4593.6,461.2 739,183.8 1473.7,429.3 2185.5,737.1 2064.8,893.1 3673.9,2234.1 5010.2,3563.402 C -11259.3,462 -10131.9,1845 -8532.71,3054 c 1290.63,975.7 2931.45,1806.6 4627.37,2240.2 552.81,141.3 1112.56,234.4 1673.16,281.9 826.76,72.2 1577.371,31 2288.6448,-71.8 C 1106.04,5352.6 2068.73,5052.2 3028.95,4747.4 c 1140.39,-361.9 2237.2,-755.6 3420.72,-959.6 559.83,-96.5 1134.52,-146.5 1748.68,-142.4 275.8,1.8 558.85,19.7 848.92,46 946.19,85.9 1968.23,298.5 3013.43,597 1382,394.8 2760.7,939.2 3896.5,1599.9 381.2,221.6 731.2,452.1 1057.8,685.4 1151.2,822.39 2004.1,1696.78 2863.9,2577.81 813.9,834.05 1658.5,1665.59 2799.2,2464.69 414.5,292.8 861,579.1 1349.7,851 638.8,355.4 1313.2,664.6 1991.4,931.2 866.9,340.8 1731.7,619.7 2614.3,809.9 1385.4,298.5 2803.7,414.4 4100.6,341.9 405.8,-22.7 800.9,-65.8 1187.4,-120 2181.3,-305.8 4079.6,-1041.3 5805.2,-1863.8"
         style="fill:none;stroke:#616153;stroke-width:20;stroke-linecap:butt;stroke-linejoin:miter;stroke-miterlimit:10;stroke-dasharray:none;stroke-opacity:1"
         id="path16" />
      <path
         d="m -29883.2,-4843.4 c 1708.8,-356.7 3388.3,-768 5347.7,-743.5 1336.3,16.8 2832.1,189.2 4321.2,622.1 698,200.2 1394.7,461.3 2075.8,776.4 1959.7,906.6 3518.9,2219.7 4839.7,3516.701 1288.9,1272.597 2397.7,2616.399 3981.08,3753.199 1362.41,978.2 3072.92,1730.2 4779.93,2079.9 566.67,116.1 1134.84,175.1 1701.26,196.1 832.06,30.8 1588.46,-45.7 2316.342,-171.3 1048.395,-181 2036.868,-485.8 3041.568,-754.3 1181.27,-315.7 2308.33,-629.9 3471.43,-734.4 561.07,-50.4 1121.04,-44.5 1715.35,10.3 268.55,24.8 542.78,68.1 825.65,116 917.8,155.4 1924.89,429.6 2998.29,763.3 1396.1,433.9 2822.4,963.9 4003.3,1575.4 396.7,205.1 761.5,416.5 1101.8,624.6 1210,739.91 2103.9,1475.59 2997,2237.43 842.5,718.59 1735.3,1439.67 2941.8,2216.37 435.9,280.7 897.3,566.6 1394.4,842.6 659.9,366.2 1343.9,697.7 2009.3,995.9 867.7,388.7 1689.3,735.3 2548.9,983.8 1334.7,385.8 2738.1,641.6 4068.7,607.6 407.1,-10.4 807.2,-21.4 1201.6,-55.3 2210.2,-190 4232.2,-848.4 5950.1,-1692.9"
         style="fill:none;stroke:#616153;stroke-width:20;stroke-linecap:butt;stroke-linejoin:miter;stroke-miterlimit:10;stroke-dasharray:none;stroke-opacity:1"
         id="path18" />
      <path
         d="m -29739.9,-5116.5 c 1632.6,-246.5 3208,-525.8 5037.9,-440.5 1251.1,58.4 2644.9,315.8 4048.8,783 656.4,218.5 1315.7,493.1 1966.2,815.6 1854.5,919.6 3363.8,2205.4 4669,3470.103 1257.6,1228.098 2350.7,2529.697 3915.3,3597.397 1435.82,979.9 3215.41,1652.2 4932.46,1919.6 580.88,90.4 1157,116.6 1729.35,110.2 837.18,-9.3 1599.51,-121.9 2344.05,-270.9 1047.1759,-209.5 2061.195,-519.8 3110.65,-751.6 1221.83,-269.9 2384.22,-584.7 3522.13,-509.2 562.33,37.3 1107.98,58 1682.03,163.1 261.52,47.8 526.6,116.2 802.38,185.8 889.06,224.4 1881.65,560.4 2983.25,929.6 1410.2,472.5 2884,988.7 4110,1551 412.1,188.5 792,380.7 1145.9,563.79 1269.7,657.07 2202.3,1254.01 3130.1,1897.05 869.9,602.88 1810.1,1216.26 3084.3,1968.06 456.6,269.5 933.5,554.2 1439.1,834.3 681.1,376.9 1374.5,731.5 2027.2,1060.4 868.5,437.7 1646.4,850.1 2483.5,1157.8 1283.3,471.6 2670.8,786 4036.9,873.3 408.3,26.2 813.4,22.9 1215.6,9.4 2238.7,-75 4384.9,-655.5 6095.1,-1522.1"
         style="fill:none;stroke:#616153;stroke-width:20;stroke-linecap:butt;stroke-linejoin:miter;stroke-miterlimit:10;stroke-dasharray:none;stroke-opacity:1"
         id="path20" />
      <path
         d="m -29596.6,-5389.5 c 1556.4,-136.4 3028.7,-314 4728.1,-137.6 1166.6,121.2 2458.4,439.5 3776.4,943.9 615.2,235.5 1236.6,524.6 1856.6,854.9 1749.3,931.7 3211.8,2187.7 4498.4,3423.3 1229.1,1180.602 2306.1,2440.2 3849.4,3441.7 1510.84,980.4 3358.77,1572.7 5085,1759.2 595.4,64.3 1179.12,58.2 1757.46,24.4 842.23,-49.3 1610.54,-197.7 2371.75,-370.4 1045.978,-237.3 2085.314,-554.3 3179.73,-749.1 1262.15,-224.6 2456.94,-371.3 3572.83,-283.9 567.03,44.4 1095.22,161 1648.72,315.8 254.61,71.2 510.33,164.2 779.09,255.7 860.1,292.9 1838.46,690.8 2968.22,1095.9 1424.4,510.6 2945.6,1013.6 4216.7,1526.6 427.5,172.03 822.7,344.66 1189.9,502.97 1330.5,573.65 2299.4,1032.46 3263.3,1556.69 895.9,487.24 1884.5,993.13 3226.7,1719.74 477.3,258.4 969.9,541.7 1483.9,825.9 702.2,387.7 1405,766.2 2045.1,1125.1 869.3,487.4 1603.2,963.8 2418.1,1331.6 1231.6,555.9 2603.1,969.2 4005.1,1139.2 409.2,49.6 819.5,66.9 1229.6,74 2266.9,39.2 4537.6,-462.6 6240,-1351.2"
         style="fill:none;stroke:#616153;stroke-width:20;stroke-linecap:butt;stroke-linejoin:miter;stroke-miterlimit:10;stroke-dasharray:none;stroke-opacity:1"
         id="path22" />
      <path
         d="m -29453.2,-5662.5 c 1480.1,-26.2 2850.3,-101.6 4418.2,165.3 1082.7,184.3 2271.8,563.1 3504.1,1104.8 573.8,252.3 1157.4,556 1746.9,894.1 1644.1,943.2 3057.2,2172.8 4327.7,3376.702 1198.2,1135.498 2263.9,2347.998 3783.5,3285.798 1587.5,979.6 3502.82,1491.6 5237.65,1599 610.11,37.7 1201.2,-0.1 1785.55,-61.5 847.25,-89.1 1621.61,-273.1 2399.46,-469.9 1044.84,-264.4 2109.3,-589.2 3248.8,-746.5 1302.32,-179.8 2533.28,-237.5 3623.54,-58.7 571.16,93.7 1082.62,264.7 1615.4,468.5 247.8,94.9 494.04,212.1 755.82,325.7 831.05,360.6 1795.34,820.9 2953.09,1262.1 1438.79,548.3 3007.29,1038.4 4323.49,1502.26 443,155.46 853.7,308.38 1233.9,442.1 1392,489.46 2394.9,811.39 3396.5,1216.32 920.6,372.17 1958.7,770.36 3369.2,1471.42 497.7,247.4 1006.1,529.2 1528.7,817.5 723.3,398.4 1435.2,801.5 2062.9,1189.8 869.8,537.9 1560,1076.6 2352.7,1505.5 1179.9,638.5 2535.2,1150.6 3973.3,1404.9 410,72.5 825.6,110.9 1243.6,138.7 2294.9,152.6 4690.3,-269.7 6385,-1180.3"
         style="fill:none;stroke:#616153;stroke-width:20;stroke-linecap:butt;stroke-linejoin:miter;stroke-miterlimit:10;stroke-dasharray:none;stroke-opacity:1"
         id="path24" />
      <path
         d="m -29309.9,-5935.5 c 1403.9,83.9 2673,111.9 4108.4,468.2 999.7,248.2 2085.1,686.5 3231.7,1265.7 532.5,269.1 1078.4,587 1637.3,933.4 1539,953.7 2902.5,2157.9 4157,3330.0008 1167.2,1090.5992 2223.6,2253.3992 3717.7,3129.9992 1665.6,977.1 3647.52,1485.5 5390.2,1438.6 624.81,-16.8 1223.28,-58.2 1813.64,-147.3 852.25,-128.7 1632.73,-348 2427.17,-569.4 1043.8,-291 2133.2,-624.5 3317.884,-743.9 1342.376,-135.4 2610.006,-100.6 3674.246,166.5 575.55,144.5 1069.98,369 1582.07,621.3 240.98,118.7 477.77,259.6 732.55,395.5 802.06,427.8 1752.33,950.6 2938.01,1428.4 1453.23,585.5 3068.93,1063.24 4430.23,1477.86 458.4,138.94 884.8,271.92 1278,381.28 1453.9,404.42 2489.1,591.4 3529.6,875.96 944,258.15 2032.7,547.93 3511.6,1223.13 518.2,236.58 1042.5,516.67 1573.5,809.07 744.4,409.3 1465.3,837.5 2080.8,1254.4 870,589.3 1517,1188.4 2287.3,1679.5 1128.5,719.4 2467.4,1330.3 3941.4,1670.6 411,94.9 831.7,154.8 1257.8,203.4 2322.7,265.2 4842.9,-76.8 6529.8,-1009.5"
         style="fill:none;stroke:#616153;stroke-width:20;stroke-linecap:butt;stroke-linejoin:miter;stroke-miterlimit:10;stroke-dasharray:none;stroke-opacity:1"
         id="path26" />
      <path
         d="m -29166.6,-6208.6 c 1327.7,194.1 2496.7,327 3798.6,771.2 917.5,313 1898.4,809.6 2959.3,1426.6 491.2,285.7 999.3,617.7 1527.7,972.6 1434.1,963.4 2747.7,2143.102 3986.4,3283.399 1136,1045.801 2184.8,2156.401 3651.8,2974.101 1745.1,972.7 3791.63,1324.7 5542.75,1278.3 639.84,-16.9 1245.36,-116.1 1841.73,-233.1 857.27,-168.1 1643.95,-422.6 2454.88,-669 1042.89,-316.9 2157.06,-660 3386.9595,-741.3 1382.3905,-91.3 2686.4305,39.5 3724.9505,391.8 579.81,196.8 1057.17,473.9 1548.75,774 234.08,142.9 461.56,307.1 709.28,465.4 773.29,494.4 1709.43,1080.1 2922.92,1594.7 1467.88,622.4 3130.58,1088.07 4536.98,1453.46 473.9,122.42 916.1,235.2 1322,320.46 1516.3,318.44 2582.5,372.91 3662.8,535.59 966.6,145.55 2106.5,325.83 3654.1,974.83 538.6,225.86 1078.7,504.25 1618.2,800.66 765.6,420 1495,873.9 2098.8,1319.1 869.7,641.4 1474.3,1299.1 2221.9,1853.4 1077.7,798.9 2399.7,1508.3 3909.5,1936.3 411.9,116.8 837.8,198.5 1271.8,268.1 2350.7,377 4995.6,116.1 6674.8,-838.6"
         style="fill:none;stroke:#616153;stroke-width:20;stroke-linecap:butt;stroke-linejoin:miter;stroke-miterlimit:10;stroke-dasharray:none;stroke-opacity:1"
         id="path28" />
      <path
         d="m -29023.3,-6481.6 c 1251.5,304.3 2321.1,544.2 3488.8,1074.1 835.8,379.3 1711.7,932.4 2686.9,1587.5 449.9,302.2 920.4,648.1 1418,1011.9 1329.7,971.9 2592.9,2128.502 3815.8,3236.702 1104.7,1001.098 2147.4,2057.298 3586,2818.298 1826,965.9 3936.1,1239.1 5695.3,1118 654.74,-45.1 1267.47,-174.1 1869.83,-319 862.31,-207.4 1655.29,-496.7 2482.58,-768.5 1042.13,-342.4 2180.92,-695.9 3456.035,-738.7 1422.41,-47.7 2761.945,181.9 3775.655,617.1 583.55,250.4 1044.04,579.2 1515.43,926.7 227.03,167.3 445.46,354.2 686.01,535.2 744.82,560.4 1666.65,1209.4 2907.84,1761 1482.65,658.95 3192.22,1112.91 4643.72,1429.06 489.3,105.9 947.3,198.24 1366.1,259.65 1578.7,231.53 2675.4,156.13 3795.9,195.22 988.9,34.49 2180.3,104.04 3796.6,726.51 558.9,215.26 1115,491.78 1662.9,792.26 786.7,430.8 1524.4,910.8 2116.7,1383.8 869,694 1432.2,1409.1 2156.5,2027.2 1027.8,877.4 2332.7,1684.9 3877.7,2202.2 413,138.3 843.8,242 1285.8,332.7 2378.8,488.2 5148.3,309 6819.7,-667.7"
         style="fill:none;stroke:#616153;stroke-width:20;stroke-linecap:butt;stroke-linejoin:miter;stroke-miterlimit:10;stroke-dasharray:none;stroke-opacity:1"
         id="path30" />
      <path
         d="m -28880,-6754.6 c 1175.3,414.4 2145.5,764.1 3179,1377 754.3,447.3 1525.1,1054.9 2414.6,1748.4 408.5,318.6 841.6,678.1 1308.3,1051.1 1225.8,979.4 2437.8,2114.002 3645.2,3190.1 1073.2,956.5 2111,1956.1 3520.1,2662.4 1908.3,956.6 4080.3,1152.2 5847.85,957.7 669.55,-73.6 1289.6,-231.9 1897.92,-404.8 867.4,-246.5 1666.77,-570.5 2510.29,-868 1041.54,-367.4 2204.97,-714.1 3525.12,-736.1 1462.249,-24.3 2836.09,326.5 3826.35,842.3 586.48,305.4 1030.51,685 1482.11,1079.4 219.78,191.9 429.48,401.4 662.74,605.2 716.76,626.1 1623.99,1338.2 2892.76,1927.2 1497.56,695.2 3253.86,1137.74 4750.46,1404.67 504.8,89.38 978.6,161.04 1410.1,198.83 1641.2,143.73 2768.8,-58.97 3929.1,-145.16 1011.4,-75.12 2253.9,-117.45 3939,478.21 579.3,204.75 1151.3,479.3 1707.7,783.86 807.8,441.63 1553.5,948.09 2134.6,1448.39 867.8,747.4 1390.9,1518.4 2091.1,2201.2 979,954.7 2266.3,1860 3845.9,2467.9 414.3,159.5 850,285.5 1299.8,397.4 2407,598.8 5301,501.9 6964.7,-496.9"
         style="fill:none;stroke:#616153;stroke-width:20;stroke-linecap:butt;stroke-linejoin:miter;stroke-miterlimit:10;stroke-dasharray:none;stroke-opacity:1"
         id="path32" />
      <path
         d="m -28736.7,-7027.6 c 1099,524.5 1969.1,987 2869.2,1679.9 672.2,517.5 1338.7,1177.1 2142.2,1909.4 367.3,334.7 763.1,707.6 1198.7,1090.2 1122.5,985.9 2282.6,2099.803 3474.5,3143.502 1041.7,912.098 2075.6,1852.998 3454.3,2506.598 1991.9,944.3 4224.3,1064.2 6000.4,797.4 684.24,-102.8 1311.78,-289.6 1926.01,-490.7 872.56,-285.6 1678.41,-643.9 2538,-967.5 1041.15,-392 2228.72,-768.6 3594.2,-733.5 1502.5377,38.6 2908.62,472.5 3877.06,1067.5 588.39,361.5 1016.53,791 1448.79,1232.1 212.3,216.7 413.63,448.5 639.45,675.1 689.13,691.5 1581.48,1467 2877.68,2093.53 1512.64,731.16 3315.51,1162.55 4857.21,1380.24 520.2,72.86 1009.8,123.63 1454.1,138.01 1703.6,55.12 2862.8,-272.68 4062.3,-485.52 1034.6,-183.59 2327.5,-338.65 4081.5,229.89 599.6,194.35 1187.6,466.84 1752.4,775.47 829,452.41 1582.2,985.58 2152.5,1513.08 866,801.1 1350.4,1627.1 2025.7,2375.1 931.2,1031.4 2200.8,2034 3814,2733.6 415.8,180.4 856.2,328.9 1314,462.1 2435.5,708.9 5453.6,694.8 7109.5,-326"
         style="fill:none;stroke:#616153;stroke-width:20;stroke-linecap:butt;stroke-linejoin:miter;stroke-miterlimit:10;stroke-dasharray:none;stroke-opacity:1"
         id="path34" />
      <path
         d="m -28593.4,-7300.7 c 1022.8,634.8 1790.7,1212.8 2559.4,1982.9 588.7,589.7 1152.6,1299 1869.8,2070.3 326.2,350.8 684.9,736.8 1089.1,1129.5 1020.1,991.1 2127.2,2085.6016 3303.9,3096.801 1009.9,867.899 2040.6,1748.099 3388.4,2350.699 2076.8,928.7 4367.8,975.1 6152.9,637.1 698.8,-132.3 1334.07,-347.2 1954.16,-576.5 877.78,-324.5 1690.22,-717 2565.7,-1067.1 1040.95,-416.2 2252.72,-805.3 3663.28,-730.9 1542.705,81.4 2979.44,619.6 3927.76,1292.8 589.21,418.3 1002.13,897.1 1415.46,1384.9 204.63,241.4 397.96,495.4 616.19,744.9 661.94,756.8 1539.1,1595.5 2862.6,2259.83 1527.85,766.92 3377.15,1187.38 4963.95,1355.85 535.6,56.33 1040.9,86.05 1498.2,77.19 1765.6,-34.22 2957.7,-485.39 4195.3,-825.89 1058.7,-291.27 2401.1,-559.59 4224.1,-18.43 619.8,184.03 1223.8,454.38 1797.1,767.08 850.1,463.2 1610.5,1023.36 2170.4,1577.77 863.6,855.2 1310.8,1735.5 1960.3,2549 884.6,1107.8 2136.1,2206.9 3782.2,2999.4 417.5,201 862.4,372.1 1328,526.8 2464.3,818.4 5606.3,887.6 7254.5,-155.2"
         style="fill:none;stroke:#616153;stroke-width:20;stroke-linecap:butt;stroke-linejoin:miter;stroke-miterlimit:10;stroke-dasharray:none;stroke-opacity:1"
         id="path36" />
      <path
         d="m -28450,-7573.7 c 946.5,744.9 1609.1,1440.4 2249.5,2285.8 502.6,663.5 966.9,1420.6 1597.4,2231.2 285.4,366.7 607.2,765.6 979.5,1168.7 918.9,995.402 1971.6,2071.699 3133.2,3050.2 978.1,823.8 2006.2,1641.5 3322.6,2194.9 2163,909.3 4510.7,885.1 6305.5,476.8 713.1,-162.2 1356.3,-404.9 1982.2,-662.4 883.08,-363.3 1702.23,-789.8 2593.41,-1166.6 1040.95,-440.2 2276.79,-842.2 3732.35,-728.3 1582.973,123.9 3048.563,767 3978.47,1518 588.91,475.6 987.34,1003.3 1382.14,1537.6 196.74,266.3 382.41,542.4 592.92,814.9 635.16,821.9 1496.85,1723.71 2847.52,2426.04 1543.21,802.46 3438.76,1212.2 5070.69,1331.44 551.1,39.82 1072,48.32 1542.2,16.37 1827.3,-124.15 3053.8,-697.49 4328.5,-1166.25 1083.7,-398.48 2474.7,-780.29 4366.5,-266.74 640.2,173.78 1260.2,441.9 1841.9,758.68 871.3,473.98 1638.5,1061.3 2188.3,1642.41 860.7,909.75 1272,1843.85 1894.9,2722.85 839,1184 2072.3,2379 3750.4,3265.2 419.4,221.5 868.7,415.4 1342,591.5 2493.4,927.7 5759,1080.5 7399.4,15.6"
         style="fill:none;stroke:#616153;stroke-width:20;stroke-linecap:butt;stroke-linejoin:miter;stroke-miterlimit:10;stroke-dasharray:none;stroke-opacity:1"
         id="path38" />
      <path
         d="m -28306.7,-7846.7 c 870.3,855.1 1423.8,1668.5 1939.7,2588.7 413.6,737.8 781.6,1542.1 1325,2392.1 244.7,382.6 530.2,793.9 869.8,1208 819.3,998.701 1815.9,2058.002 2962.7,3003.5 946,780 1971.8,1533.3 3256.7,2039 2250.3,885.8 4653.1,794.5 6458,316.5 727.2,-192.5 1378.7,-462.3 2010.34,-748.2 888.46,-402 1714.44,-862.2 2621.12,-1266.1 C -5822.17,1222.9 -4562.4,807.402 -3061.91,961.102 -1438.59,1127.3 54.1797,1875.7 967.266,2704.3 1554.8,3237.5 1939.46,3813.6 2316.08,4394.6 c 188.68,291.1 367,589.4 569.65,884.8 608.76,887.2 1454.74,1851.84 2832.43,2592.35 1558.73,837.82 3500.41,1237.02 5177.44,1307.04 566.5,23.29 1102.9,10.47 1586.3,-44.45 1888.6,-214.61 3150.7,-909.31 4461.6,-1506.63 1109.5,-505.5 2548.2,-1000.71 4509,-515.04 660.5,163.6 1296.4,429.43 1886.6,750.29 892.4,484.76 1666.2,1099.36 2206.2,1707.06 857.1,964.48 1233.9,1951.98 1829.5,2896.78 794.4,1260.2 2009.4,2550.3 3718.5,3530.9 421.6,241.9 875.1,458.5 1356.2,656.2 2522.8,1036.6 5911.6,1273.4 7544.3,186.5"
         style="fill:none;stroke:#616153;stroke-width:20;stroke-linecap:butt;stroke-linejoin:miter;stroke-miterlimit:10;stroke-dasharray:none;stroke-opacity:1"
         id="path40" />
      <path
         d="m -28163.4,-8119.7 c 794.1,965.2 1235.1,1895.4 1629.9,2891.5 321.5,811.6 596.9,1663.6 1052.7,2553.1 204.2,398.4 453.8,821.9 760.1,1247.2 721.3,1001.502 1660,2044.701 2792,2956.9 913.9,736.3 1937.6,1423.6 3190.9,1883.2 2338.6,857.6 4794.8,703 6610.6,156.2 740.9,-223.2 1401.6,-518.8 2038.4,-834 894.65,-439.3 1726.84,-934.5 2648.8,-1365.7 C -6398.38,881.402 -5114.8,452 -3569.48,645.602 -1905.72,854 -387.301,1707.6 510.395,2614 1095.6,3205 1467.16,3829.3 1825.9,4457.1 c 180.45,315.8 351.68,636.4 546.37,954.6 582.69,952.5 1412.77,1979.8 2817.35,2758.66 1574.38,873.02 3562.05,1261.85 5284.18,1282.63 582,6.78 1133.8,-27.47 1630.3,-105.27 1949.7,-305.47 3248.6,-1121.07 4594.8,-1846.99 1136,-612.55 2621,-1217.43 4651.5,-763.33 680.5,154.68 1332.6,416.94 1931.3,741.87 913.6,495.54 1693.5,1137.5 2224.1,1771.73 853,1019.4 1196.6,2060.3 1764.1,3070.7 750.7,1336.6 1947.4,2721.1 3686.7,3796.7 423.9,262.1 881.6,501.5 1370.2,720.8 2552.6,1145.3 6064.3,1466.3 7689.2,357.4"
         style="fill:none;stroke:#616153;stroke-width:20;stroke-linecap:butt;stroke-linejoin:miter;stroke-miterlimit:10;stroke-dasharray:none;stroke-opacity:1"
         id="path42" />
      <path
         d="m -28020.1,-8392.8 c 717.9,1075.4 1043.8,2120.2 1320.1,3194.5 227.2,883.7 412.7,1785.1 780.3,2714 164,414.4 378.5,849.7 650.5,1286.5 625.2,1003.8 1502.4,2033.3 2621.3,2910.1 880.5,694.4 1903.2,1312.6 3125,1727.4 2428.1,824.4 4936,611.2 6763.2,-4.1 754.6,-254 1423.9,-576.7 2066.5,-919.8 899.92,-478.6 1739.51,-1006.4 2676.55,-1465.3 C -6974.38,540.102 -5666.86,94.6016 -4077.05,330 -2372.46,578.5 -830.027,1539.2 53.5313,2523.7 635.543,3172.3 994.625,3844.8 1335.71,4519.5 c 172.11,340.5 336.47,683.4 523.09,1024.5 556.9,1018 1371.88,2105.96 2802.28,2924.97 1591.21,906.24 3623.69,1286.67 5390.92,1258.22 597.4,-9.74 1164.5,-65.48 1674.3,-166.08 2010.3,-396.67 3347.1,-1332.95 4728,-2187.36 1163.1,-719.75 2695,-1439.15 4793.9,-1011.65 701,144.1 1369,404.5 1976.2,733.48 934.6,506.33 1720.4,1175.69 2241.9,1836.39 848.3,1074.53 1160,2168.73 1698.7,3244.53 707.8,1413.4 1886.2,2891.5 3654.9,4062.5 426.4,282.3 888.3,544 1384.2,785.5 2584.2,1250.5 6217,1659.2 7834.2,528.2"
         style="fill:none;stroke:#616153;stroke-width:20;stroke-linecap:butt;stroke-linejoin:miter;stroke-miterlimit:10;stroke-dasharray:none;stroke-opacity:1"
         id="path44" />
      <path
         d="m -27876.8,-8665.8 c 1171.4,2164.3 901.6,4231.7 1518.2,6372.3 616.7,2140.5 2623.1,4691.6 6050.7,5760.8 2518.2,785.5 5076.4,518.9 6915.8,-164.4 1839.3,-683.3 3164.8,-1735 4798.8,-2570.498 C -7550.16,199 -6219.34,-259.301 -4584.62,14.5 -2839.66,306.801 -1273.84,1370.2 -403.34,2433.5 467.156,3496.7 814,4592.8 1345.34,5676.4 1876.68,6759.9 2674.58,7911.56 4132.53,8767.58 6281.74,10029.5 9278.2,10262.6 11348.6,9774.49 13419,9286.38 14794.8,8229.47 16209.7,7246.77 c 1190.8,-827.07 2769,-1660.97 4936.4,-1259.97 1841.5,340.7 3437.8,1496.35 4280.8,2626.14 842.9,1129.78 1123.7,2277.36 1633.2,3418.46 824.4,1846.4 2408.2,3816.3 5021.3,5178.4 2613.1,1362.1 6369.7,1852.1 7979.1,699.1"
         style="fill:none;stroke:#616153;stroke-width:20;stroke-linecap:butt;stroke-linejoin:miter;stroke-miterlimit:10;stroke-dasharray:none;stroke-opacity:1"
         id="path46" />
    </g>
  </g>
</svg>
